<svg xmlns="http://www.w3.org/2000/svg" xmlns:xlink="http://www.w3.org/1999/xlink" viewBox="0,0,256,256" width="96px" height="96px" fill-rule="nonzero"><g fill="none" fill-rule="nonzero" stroke="none" stroke-width="1" stroke-linecap="butt" stroke-linejoin="miter" stroke-miterlimit="10" stroke-dasharray="" stroke-dashoffset="0" font-family="none" font-weight="none" font-size="none" text-anchor="none" style="mix-blend-mode: normal"><g transform="scale(5.33333,5.33333)"><path d="M24,5c-10.5,0 -19,8.6 -19,19.1c0,8.2 5.1,15.1 12.3,17.9l4.2,-11.5c-2.7,-1 -4.5,-3.5 -4.5,-6.5c0,-3.9 3.1,-7 7,-7c3.9,0 7,3.1 7,7c0,3 -1.8,5.5 -4.5,6.5l4.2,11.5c7.2,-2.8 12.3,-9.7 12.3,-17.9c0,-10.5 -8.5,-19.1 -19,-19.1z" fill="#04b7f8"></path><path d="M17.9,43.3l-0.9,-0.4c-7.8,-2.9 -13,-10.5 -13,-18.8c0,-11.1 9,-20.1 20,-20.1c11,0 20,9 20,20.1c0,8.3 -5.2,15.9 -12.9,18.8l-0.9,0.4l-4.8,-13.3l0.9,-0.4c2.3,-0.9 3.8,-3.1 3.8,-5.6c0,-3.3 -2.7,-6 -6,-6c-3.3,0 -6,2.7 -6,6c0,2.5 1.5,4.7 3.8,5.6l0.9,0.4zM24,6c-9.9,0 -18,8.1 -18,18.1c0,7.1 4.3,13.7 10.7,16.5l3.5,-9.6c-2.6,-1.3 -4.2,-4 -4.2,-7c0,-4.4 3.6,-8 8,-8c4.4,0 8,3.6 8,8c0,3 -1.6,5.7 -4.2,7l3.5,9.6c6.4,-2.8 10.7,-9.3 10.7,-16.5c0,-10 -8.1,-18.1 -18,-18.1z" fill="#1a8eb9"></path></g></g></svg>